<svg xmlns="http://www.w3.org/2000/svg" height="512pt" version="1.1" viewBox="-67 0 512 512.00008" width="512pt">
<g id="surface1">
<path d="M 307.773438 33.292969 L 255.1875 2.578125 C 250.628906 -0.445312 244.492188 -1.054688 239.078125 2.070312 L 16.378906 130.648438 C 6.242188 136.5 0 147.3125 0 159.015625 L 0 460.417969 C 0 469.871094 3.292969 476.386719 8.421875 478.914062 L 8.414062 478.925781 L 61.535156 510.207031 C 65.53125 512.773438 70.851562 512.679688 76.695312 509.304688 L 293.773438 383.972656 C 306.179688 376.808594 316.238281 357.59375 316.238281 341.046875 L 316.238281 46.972656 C 316.238281 40.734375 312.65625 35.738281 307.773438 33.292969 Z M 307.773438 33.292969 " style=" stroke:none;fill-rule:nonzero;fill:rgb(46.27451%,46.27451%,46.27451%);fill-opacity:1;" />
<path d="M 293.773438 383.972656 L 76.695312 509.304688 C 64.285156 516.46875 54.230469 508.863281 54.230469 492.320312 L 54.230469 239.976562 L 316.238281 88.707031 L 316.238281 341.050781 C 316.238281 357.59375 306.179688 376.8125 293.773438 383.972656 Z M 293.773438 383.972656 " style=" stroke:none;fill-rule:nonzero;fill:rgb(66.666667%,66.666667%,66.666667%);fill-opacity:1;" />
<path d="M 307.773438 33.292969 L 255.1875 2.578125 C 250.628906 -0.445312 244.492188 -1.054688 239.078125 2.070312 L 16.378906 130.648438 C 6.242188 136.5 0 147.3125 0 159.015625 L 0 208.3125 L 54.230469 239.976562 L 316.238281 88.707031 L 316.238281 46.972656 C 316.238281 40.734375 312.65625 35.738281 307.773438 33.292969 Z M 307.773438 33.292969 " style=" stroke:none;fill-rule:nonzero;fill:rgb(67.45098%,22.352941%,17.647059%);fill-opacity:1;" />
<path d="M 371.980469 366.996094 L 154.902344 492.328125 C 135.402344 503.585938 114.140625 517.285156 99.78125 494.246094 L 85.6875 468.175781 C 65.046875 430.320312 54.226562 387.894531 54.226562 344.773438 L 54.226562 239.976562 L 316.238281 88.707031 L 316.238281 193.503906 C 316.238281 236.621094 327.054688 279.050781 347.699219 316.90625 L 349.597656 320.417969 C 356.234375 332.695312 364.675781 343.847656 374.066406 354.175781 C 378.285156 358.8125 379.21875 362.816406 371.980469 366.996094 Z M 371.980469 366.996094 " style=" stroke:none;fill-rule:nonzero;fill:rgb(89.019608%,89.019608%,89.019608%);fill-opacity:1;" />
<path d="M 54.230469 190.679688 L 54.230469 239.976562 L 316.238281 88.707031 L 316.238281 46.972656 C 316.238281 35.207031 303.5 27.851562 293.308594 33.734375 L 70.605469 162.3125 C 60.472656 168.164062 54.230469 178.976562 54.230469 190.679688 Z M 54.230469 190.679688 " style=" stroke:none;fill-rule:nonzero;fill:rgb(90.980392%,29.803922%,23.921569%);fill-opacity:1;" />
<path d="M 236.726562 270.085938 C 245.859375 276.726562 250.324219 290.042969 250.324219 305.9375 C 250.324219 321.59375 245.667969 340.179688 236.726562 357.25 C 227.785156 374.589844 215.863281 387.4375 204.132812 394.210938 C 203.757812 394.429688 203.757812 394.429688 203.757812 394.429688 C 192.207031 401.097656 180.097656 402.121094 171.34375 395 C 167.058594 392.277344 167.058594 383.316406 171.34375 375.140625 C 175.25 367.425781 182.144531 363.445312 186.246094 366.535156 C 191.085938 370.457031 197.417969 370.015625 204.132812 366.140625 C 210.464844 362.484375 216.980469 355.507812 221.824219 345.996094 C 226.671875 336.746094 229.28125 326.542969 229.28125 318.089844 C 229.28125 309.152344 226.851562 302.117188 221.824219 298.550781 C 216.980469 294.652344 210.644531 295.316406 204.132812 299.078125 C 197.796875 302.734375 191.085938 309.601562 186.246094 319.089844 C 182.144531 326.917969 175.441406 330.789062 171.34375 327.695312 C 170.59375 327.136719 170.039062 326.222656 169.289062 325.664062 C 169.289062 325.160156 169.289062 324.917969 169.105469 325.023438 C 169.105469 324.515625 168.917969 324.140625 168.734375 323.984375 C 168.734375 323.234375 168.546875 322.859375 168.546875 322.355469 C 168.546875 322.113281 168.363281 322.214844 168.363281 321.972656 C 168.175781 320.585938 168.175781 319.089844 168.363281 317.746094 L 173.953125 250.1875 C 174.507812 245.640625 176.183594 241.191406 178.609375 237.566406 C 178.984375 237.109375 179.164062 237.003906 179.355469 236.632812 C 179.535156 236.285156 179.726562 236.175781 179.914062 235.824219 C 181.402344 233.972656 182.894531 232.605469 184.753906 231.53125 L 239.710938 199.804688 C 245.671875 196.363281 250.328125 199.882812 250.328125 207.832031 C 250.328125 215.292969 245.671875 224.433594 239.710938 227.875 L 193.886719 254.332031 L 191.648438 280.21875 C 195.742188 276.355469 200.027344 273.136719 204.132812 270.765625 C 215.863281 263.988281 227.785156 263.074219 236.726562 270.085938 Z M 236.726562 270.085938 " style=" stroke:none;fill-rule:nonzero;fill:rgb(46.27451%,46.27451%,46.27451%);fill-opacity:1;" />
<path d="M 129.582031 167.695312 C 129.582031 173.914062 125.800781 181.140625 121.136719 183.832031 C 116.46875 186.527344 112.6875 183.667969 112.6875 177.449219 C 112.6875 171.226562 116.46875 164 121.136719 161.308594 C 125.800781 158.613281 129.582031 161.476562 129.582031 167.695312 Z M 129.582031 167.695312 " style=" stroke:none;fill-rule:nonzero;fill:rgb(89.019608%,89.019608%,89.019608%);fill-opacity:1;" />
<path d="M 268.976562 87.203125 C 268.976562 93.421875 265.195312 100.648438 260.53125 103.34375 C 255.863281 106.035156 252.082031 103.175781 252.082031 96.957031 C 252.082031 90.734375 255.863281 83.511719 260.53125 80.816406 C 265.195312 78.125 268.976562 80.984375 268.976562 87.203125 Z M 268.976562 87.203125 " style=" stroke:none;fill-rule:nonzero;fill:rgb(89.019608%,89.019608%,89.019608%);fill-opacity:1;" />
</g>
</svg>